<?xml version="1.0" encoding="UTF-8"?><svg id="Capa_1" xmlns="http://www.w3.org/2000/svg" xmlns:xlink="http://www.w3.org/1999/xlink" viewBox="0 0 233.01 54.2"><defs><style>.cls-1{fill:url(#Degradado_sin_nombre_363);}</style><linearGradient id="Degradado_sin_nombre_363" x1="1.27" y1="27.69" x2="231.61" y2="27.69" gradientUnits="userSpaceOnUse"><stop offset="0" stop-color="#fff"/><stop offset="0" stop-color="#a47a1c"/><stop offset=".15" stop-color="#d4a94d"/><stop offset=".29" stop-color="#ffec94"/><stop offset=".44" stop-color="#e6be68"/><stop offset=".62" stop-color="#ffd87c"/><stop offset=".81" stop-color="#b58f3d"/><stop offset="1" stop-color="#956e14"/></linearGradient></defs><path class="cls-1" d="M159.56,21.81h-4.26c-.29-.82-.11-1.18,.69-1.11,.08,0,.16-.02,.24,0,2.61,.5,4.09-.85,5.38-2.94,1.78-2.9,3.78-5.67,5.73-8.47,.29-.42,.8-.67,1.21-1.01,.11,.08,.23,.16,.34,.24v12.05h8.42c.02,.4,.04,.72,.06,1.13h-8.47c0,.46,0,.84,0,1.22,0,6.07,0,12.14,0,18.21,0,.6,.03,1.2,.07,1.81,.09,1.6,.87,2.75,2.36,3.34,1.56,.61,3.09,.47,4.46-.53,1.18-.86,1.58-2.5,.91-3.52-.64-.97-2.2-1.15-3.47-.36-.44,.27-.79,.69-1.23,.96-.23,.14-.69,.25-.82,.13-.18-.16-.18-.56-.2-.86,0-.14,.11-.3,.2-.43,.95-1.48,4.02-1.91,5.58-.79,1.46,1.05,1.73,3.14,.42,4.69-.62,.73-1.49,1.39-2.38,1.74-3.17,1.23-6.48,1.55-9.83,.94-3.6-.66-5.42-3.22-5.43-7.55-.01-5.91,.01-11.82,.02-17.72,0-.35,0-.71,0-1.18Zm-26.85,3.2v-2.85c-.02-.48,.02-.96-.06-1.43-.08-.51-.26-1-.4-1.5-.47,.23-1.02,.37-1.39,.71-2.19,1.98-4.54,3.6-7.58,3.92-.12,.01-.22,.17-.34,.27q2.02,1.25,2.35,3.78c.04,.31,.13,.62,.19,.93,0,.72,0,1.44,0,2.16,0,1.35,0,2.7,0,4.05,0,.32,0,.64,0,.97,0,.15,0,.31,0,.46,0,.8,0,1.6,0,2.41,0,1.26-.02,2.53-.02,3.79,0,.33,0,.67,0,1-.19,1.62-.5,3.16-2.35,3.73,0,.18,.01,.35,.02,.53,.16,0,.32,0,.49,0,.71,0,1.42,0,2.14-.01h8.9c-.05-.29-.04-.48-.1-.51-1.79-.9-1.98-2.56-1.98-4.26,.02-5.45,.08-10.9,.15-16.35,0-.37,.09-.82,.31-1.1,1.1-1.46,2.47-2.58,4.24-3.14,2.44-.78,3.68-.15,4.48,2.22,.08,.37,.24,.74,.24,1.11,.01,5.55,.01,11.09,0,16.64,0,.37-.16,.74-.25,1.11q-.39,1.95-2.39,4.14h13.89q-2.6-1.93-3.11-3.42c-.08-.29-.24-.58-.24-.87-.01-4.54-.01-9.09,0-13.63,0-.26,.13-.51,.21-.77-.07-.95-.04-1.92-.22-2.84-.57-2.89-2.07-5.03-5.04-5.9-2.21-.65-4.46-.45-6.59,.13-1.39,.38-2.58,1.47-3.86,2.24-.48,.66-.95,1.31-1.66,2.28ZM19.45,13.39c.48,1.48-.02,2.48-1.47,3.03,0,0,0-.02,0-.02-.07,.17-.15,.34-.22,.51h0c-.06,.67-.13,1.35-.21,2.19,.55-.21,.89-.35,1.24-.48,.22,.31,.55,.59,.66,.93,1.2,3.72,2.36,7.46,3.54,11.19,.06,.18,.16,.35,.24,.53,.96-.1,.77,.73,.94,1.22,.36,.99,.68,1.99,.93,3.01,.12,.49,.04,1.03,.06,1.55,.05,.19,.09,.38,.15,.56,.89,2.37,1.84,4.72,2.67,7.11,.61,1.76-.17,3.06-1.94,3.51-.77,.2-1.54,.41-2.32,.62,.46,.25,.94,.35,1.42,.34,4.41-.07,8.82-.17,13.23-.24,2.19-.03,4.37,0,6.56-.03,.33,0,.66-.22,1-.34-.04-.15-.09-.29-.13-.44-.51,0-1.01,0-1.52,0-2.75,.05-4.53-1.2-5.53-3.8-3.05-7.99-6.17-15.95-9.28-23.91-1.39-3.57-2.83-7.12-4.25-10.68-.7,.07-1.4,.2-2.1,.21-.69,0-1.38-.11-2.27-.19,.75,1.35-.5,1.36-.94,1.9,0,0,0-.02,0-.02-.17,.41-.34,.82-.51,1.23,0,0-.01,.06-.01,.06,.02,.16,0,.32,.05,.47Zm77.64,8.8c1.51,.07,3.01,.15,4.52,.21,1.19,.05,1.69,.67,1.68,1.83-.02,2.19-.05,4.38,.01,6.56,.03,1.01-.42,1.35-1.31,1.61-2.24,.66-4.5,1.29-6.64,2.21-2.51,1.08-4.72,2.7-6.04,5.19-2.23,4.2-.27,8.36,4.15,8.87,2.16,.25,4.28,0,6.32-.79,2.06-.78,3.83-1.96,5.27-3.8,.45,2.87,1.6,4.19,3.83,4.53,2.31,.35,6.18-1.52,7.29-3.57,.11-.2-.04-.53-.08-.81-.28,.05-.64,0-.82,.16-.65,.58-1.21,1.27-1.86,1.85-.44,.39-.99,.65-1.73,1.13-.06-.94-.14-1.52-.14-2.1,.02-5.01,.11-10.02,.06-15.03-.05-4.74-2.43-7.67-6.96-9.06-2.42-.75-4.85-.47-7.28-.46-.09-.06-.18-.12-.28-.19-.16,.04-.32,.07-.48,.11-.63,.76,.38,1.02,.48,1.55Zm6.23,12.15c0,.16,0,.33,0,.49,.07,.81,.18,1.61,.2,2.42,.03,1.65,.03,3.3,0,4.95,0,.41-.15,.81-.23,1.22-1.15,1.65-2.96,2.28-4.74,2.55-2.5,.37-4.62-1.61-4.01-4.77,.42-2.17,1.49-3.93,3.38-5.08,1.61-.99,3.32-1.83,4.99-2.71,.08-.04,.27,.15,.41,.24,0,.23,0,.47,0,.7Zm-23.02-22.13s.05-.05,.08-.07c.03-.02,.08-.05,.07-.07-.01-.06-.05-.12-.07-.18,0-.15,0-.31,0-.46,0-1.91,0-3.82,0-5.84-1.16,.07-2.27-.11-3.18,.23-2.51,.94-4.94,2.09-7.39,3.2-.23,.1-.33,.49-.61,.93q3.6-.64,4.2,.99c.03,.05,.07,.1,.1,.16,0,.01-.05,.05-.08,.07,0,.24,0,.48,0,.72,0,.16,0,.32,0,.48,0,.72,0,1.43,0,2.15,0,.16,0,.32,0,.48-.03,1.15-.08,2.29-.08,3.44-.04,6.66-.07,13.31-.11,19.97,0,.39,0,.78,0,1.18,0,.4,0,.81,0,1.21-.01,1.35-.02,2.7-.03,4.06-.15,1.6-1.1,2.69-2.45,3.48h12.26c.05-.09,.1-.18,.15-.27-2.75-.59-2.91-2.65-2.92-4.79,0-.56,0-1.11,0-1.67,.03-5.37,.07-10.73,.1-16.1-.02-3.79-.03-7.58-.04-11.37,0-.03,.05-.06,.08-.08,0-.56,0-1.11,0-1.67-.03-.06-.06-.11-.08-.17Zm-31.71,25.48c0,.16,0,.32,0,.48,0,.16,0,.32,0,.48,0,1.12,0,2.23,.01,3.35,0,.47,.01,.95,.02,1.42,.12,2.12,.57,4.07,2.57,5.28,.76-.01,1.85-.77,1.93,.82,.07,.02,.15,.05,.22,.07,.59-.78,1.06-.36,1.51,.16,.3,.02,.59,.03,.89,.05,.18-.2,.35-.41,.53-.61,.15,.18,.31,.35,.46,.53,.16-.02,.32-.04,.48-.07,1.17-.8,.31-1.97,.53-2.94,0,0,.02,.02,.02,.02-.1-.15-.2-.31-.29-.46,0,0,0,.01,0,.01-.08-.17-.16-.33-.24-.5,0,0,0,.02,0,.02-.21-.2-.61-.39-.61-.59,0-1.64,.06-3.29,.13-4.93,0-.15,.2-.3,.31-.45,0-.32,.02-.63,.02-.95-.54-.73-.59-1.44,.03-2.15,.02-3.74,.05-7.48,.07-11.23,0-.24,0-.48,.01-.71,.44-.09,.89-.24,1.33-.25,2.33-.03,4.67-.01,7-.01,.05-.19,.11-.39,.16-.58-.33-.16-.66-.46-.99-.47-2.06-.06-4.13-.03-6.19-.07-.44,0-.88-.19-1.33-.29-.07-.29-.21-.59-.21-.88-.01-2.6-.01-5.19,0-7.79,0-.29,.15-.58,.23-.87,0-.24,0-.48,0-.71-.03-.06-.06-.11-.08-.17,0-.02,.05-.05,.08-.07-.45-.73-.76-.71-1.35,.15-1.98,2.92-4.03,5.79-5.89,8.78-.96,1.55-2.08,2.36-3.91,2.1-.34-.05-.74-.02-1.06,.11-.22,.09-.36,.39-.72,.82h4.25c.03,.23,.06,.46,.09,.69,0,1.2,0,2.4,0,3.6,0,2.07-.02,4.13-.02,6.2,0,.16,0,.32,0,.48,0,.72,0,1.43,0,2.15Zm174.85,8.37h-.01c0,1.06-.67,.4-1.07,.43-.05-.04-.09-.03-.13,.02,.33,.51,.65,1.02,.98,1.52,.15-.03,.31-.05,.46-.08,.25-.07,.5-.14,.75-.21,0,0-.01,0-.01,0-.07-.33-.15-.66-.22-1,.07-.11,.14-.22,.2-.33,.56,.27,1.11,.53,1.67,.8,.08-.04,.16-.08,.24-.11,.08-.04,.16-.07,.24-.11,2.66-1.17,4.65-2.95,5.01-5.98,.4-3.37-.87-6.04-3.84-7.71-1.79-1-3.69-1.8-5.59-2.59-1.94-.81-3.97-1.4-5.88-2.26-1.39-.62-2.44-1.68-2.33-3.41,.09-1.39,1.2-2.7,2.91-3.07,1.26-.27,2.63-.41,3.89-.23,3.15,.45,6.28,1.08,7.37,4.79,.05,.18,.4,.28,.61,.41,.12-.18,.33-.36,.33-.54,.06-2.11,.09-4.22,.11-6.32,0-.19-.22-.53-.33-.52-.22,0-.51,.15-.64,.33-.27,.38-.45,.82-.68,1.27-.29-.14-.5-.24-.71-.34-5.04-2.33-10.12-2.5-15.17-.1-3.02,1.43-4.35,4.44-3.47,7.54,.55,1.94,1.81,3.4,3.64,4.19,2.29,.98,4.64,1.84,7.02,2.6,2.43,.78,4.61,1.95,6.44,3.72,2.13,2.05,1.99,4.51-.31,6.35-.25,.2-.51,.38-.76,.57-.23,.13-.47,.26-.7,.39Zm-27.95-16.2c-.02-2.74-.01-5.48,0-8.22,0-.3,.13-.6,.2-.9,0-.24,0-.49,0-.73-.03-.05-.07-.09-.09-.15,0-.01,.04-.05,.06-.07-.49-.02-1.02-.17-1.47-.04-2.99,.92-5.96,1.9-8.93,2.87-.3,.1-.57,.27-.85,.4-.03,.12-.05,.24-.08,.36,2.26-.07,3.68,.84,3.93,3.09,.1,.36,.27,.73,.28,1.09,.02,5.13,.02,10.26,0,15.39,0,.39-.23,.77-.35,1.16-.23,2.05-1.83,2.76-3.53,3.43,.33,.25,.56,.4,.8,.4,4.25,.02,8.49,.03,12.74,.01,.22,0,.44-.2,.66-.31-.16-.18-.29-.47-.48-.51-2.18-.49-2.71-2-2.68-4.01,.05-3.73,0-7.46-.01-11.19-.02-.05-.05-.1-.07-.16,0-.01,.05-.04,.07-.06,0-.32,0-.65,0-.97-.07-.3-.2-.6-.2-.9Zm-4.36-22.79c-1.18-1.15-2.87-1.38-4.28-.64-1.26,.66-1.98,2.15-1.63,3.76,.17,.79,.49,1.67,1.04,2.22,1.94,1.96,4,3.8,6.04,5.71,1.63-1.42,3.14-2.55,4.4-3.91,1.06-1.14,2.01-2.45,2.68-3.85,.64-1.33,.04-2.94-1-3.76-1.11-.87-2.76-1.05-4.01-.22-.8,.53-1.43,1.32-2.13,1.99-.32-.38-.68-.89-1.12-1.32ZM23.99,34.27c-1.05,.11-2.08,.22-3.1,.33-.08-.02-.17-.03-.25-.05-1.31,0-2.62-.02-3.92-.03-1.3,0-2.61,0-4.14,0,.49-1.27,.91-2.35,1.33-3.43,1.63-4.16,3.27-8.32,4.9-12.48-.35,.13-.69,.27-1.24,.48,.08-.84,.14-1.52,.21-2.2-.8,1.98-1.6,3.96-2.39,5.94-2.64,6.62-5.21,13.28-7.93,19.86-1.06,2.57-2.57,4.87-5.61,5.55-.22,.05-.38,.39-.57,.59,.26,.17,.51,.47,.77,.48,4.21,.02,8.43,0,12.64-.02,.27,0,.54-.17,.82-.27-.01-.13-.03-.27-.04-.4-.61-.06-1.21-.11-1.82-.17-.99-.1-1.99-.14-2.96-.33-1.73-.35-2.39-1.39-2.06-3.13,.12-.62,.3-1.24,.53-1.82,.88-2.25,1.82-4.48,2.68-6.74,.27-.72,.66-.91,1.4-.91,3.06,0,6.13,.01,9.18-.17,1.45-.09,2.41,.18,2.76,1.69-.01-.52,.06-1.06-.06-1.55-.25-1.02-.57-2.02-.93-3.01-.17-.48,.02-1.32-.94-1.22,.24,.98,.49,1.96,.75,3.01Zm193.29,12.68c-2.58-.17-4.97-1.07-6.8-3.03-1.35-1.45-1.3-3.35,.07-4.68,1.25-1.21,4.52-1.76,6.08-1.02,1.3,.62,1.47,2.13,.31,2.98-.44,.32-1,.48-1.46,.78-.19,.12-.35,.4-.36,.62,0,.13,.3,.35,.49,.39,1.29,.26,3.52-1.13,3.91-2.41,.4-1.3-.3-2.87-1.96-3.34-1.64-.46-3.43-.62-5.13-.54-2.31,.11-4.09,1.34-4.8,3.63-.72,2.33,.37,4.15,2.15,5.5,4.06,3.05,8.68,3.06,13.41,2.21-.33-.51-.65-1.02-.98-1.52-1.65,.16-3.32,.54-4.95,.43ZM91.41,22.18c-.85,.35-1.61,1.17-2.17,1.94-1.27,1.75-.87,4.15,.69,5.06,1.5,.87,4.84,.42,6.04-.86,.2-.21,.19-.61,.28-.93-.3-.06-.61-.19-.91-.18-.94,.05-1.9,.35-2.8,.2-1.6-.27-2.14-2-1-3.16,.56-.57,1.32-1.04,2.08-1.3,1.11-.38,2.3-.52,3.46-.77-.1-.53-1.11-.79-.48-1.55-1.74,.5-3.53,.86-5.19,1.54Zm-27.31,25.24c1.14-.83,1.61-2.05,1.27-3.48-.27-1.15-1.14-1.73-2.19-1.93-1.43-.28-2.82-.12-3.76,1.17-.25,.34-.23,.88-.33,1.33,1.04-.42,1.7-1.11,2.49-1.32,.75-.2,1.77-.14,2.43,.23,.86,.48,.92,1.48,.58,2.45-.5,1.43-1.9,2.51-3.4,2.21-1.2-.24-2.31-.9-3.46-1.37-.22,.97,.65,2.14-.53,2.94,2.53-.05,4.87-.73,6.91-2.22ZM23.95,8.56c-2.39-.21-3.01,.17-3.84,2.41-.08,.22-.13,.45-.2,.67,.44-.54,1.69-.55,.94-1.9,.89,.08,1.58,.2,2.27,.19,.7,0,1.4-.13,2.1-.21-.01-.83-.53-1.11-1.27-1.17Zm117.77,20.39c0,4.9,0,9.81,0,14.71,.09-.37,.25-.74,.25-1.11,.02-5.55,.02-11.09,0-16.64,0-.37-.16-.74-.24-1.11,0,1.38-.01,2.77-.01,4.15Zm46.54-.92c-.03,5.36-.05,10.73-.08,16.09,.12-.39,.35-.77,.35-1.16,.02-5.13,.02-10.26,0-15.39,0-.36-.18-.73-.28-1.09,0,.52,0,1.03,0,1.55Zm-38.18,1.07c-.07,.26-.2,.51-.21,.77-.01,4.54-.01,9.09,0,13.63,0,.29,.16,.58,.24,.87-.01-5.09-.02-10.18-.03-15.27Zm-93.02,10.74c-.11,.15-.31,.29-.31,.45-.07,1.64-.13,3.29-.13,4.93,0,.2,.4,.39,.61,.59-.05-1.99-.11-3.97-.16-5.96Zm23.31-25.79s-.08,.06-.08,.08c.01,3.79,.03,7.58,.04,11.37,.01-3.82,.02-7.64,.03-11.46Zm-62.39,2.37c1.44-.55,1.95-1.55,1.47-3.03-.05-.15-.04-.31-.05-.47-.47,1.17-.94,2.33-1.41,3.5Zm177.71,4.32c-.07,.3-.2,.6-.2,.9-.02,2.74-.02,5.48,0,8.22,0,.3,.13,.6,.2,.9,0-3.34,0-6.68,0-10.01ZM57.2,13.57c-.08,.29-.23,.58-.23,.87-.02,2.6-.02,5.19,0,7.79,0,.29,.14,.59,.21,.88,0-3.18,.02-6.37,.03-9.55ZM226.04,47.22c-.56-.27-1.11-.53-1.67-.8-.07,.11-.14,.22-.2,.33,.07,.33,.15,.66,.22,1,.55-.18,1.1-.36,1.65-.53ZM48.59,35.06c0-2.07,.02-4.13,.02-6.2,0,2.07-.02,4.13-.02,6.2Zm4.52,14.45c-.08-1.59-1.16-.83-1.93-.82,.64,.27,1.29,.55,1.93,.82Zm3.99-12.78c-.63,.71-.57,1.43-.03,2.15,.01-.72,.02-1.44,.03-2.15Zm16.08,8.12c.01-1.35,.02-2.7,.03-4.06-.01,1.35-.02,2.7-.03,4.06Zm-18.34,4.89c-.46-.51-.92-.93-1.51-.16,.5,.05,1.01,.11,1.51,.16Zm1.88-.03c-.15-.18-.31-.35-.46-.53-.18,.2-.35,.41-.53,.61,.33-.03,.66-.06,.99-.08Zm68.75-10.81c0-.8,0-1.6,0-2.41,0,.8,0,1.6,0,2.41Zm-76.88-1.2c0-.72,0-1.43,0-2.15,0,.72,0,1.43,0,2.15Zm76.89-8.84c0,.72,0,1.44,0,2.16,0-.72,0-1.44,0-2.16Zm-1.89,19.1c.71,0,1.42,0,2.14-.01-.71,0-1.42,0-2.14,.01Zm98.76-1.46c.4-.03,1.08,.62,1.07-.43-.36,.14-.71,.29-1.07,.43Zm-100.23,1.11c.01,.11,.03,.23,.04,.34h.95c0-.18-.01-.35-.02-.53-.32,.06-.65,.12-.97,.18ZM19.41,12.86c.17-.41,.34-.82,.51-1.23-.17,.41-.34,.82-.51,1.23Zm29.21,30.56c0-.47-.01-.95-.02-1.42,0,.47,.01,.95,.02,1.42Zm24.6-3.82c0-.39,0-.78,0-1.18,0,.39,0,.78,0,1.18Zm150.92,6.08c-.23,.13-.47,.26-.7,.39,.23-.13,.47-.26,.7-.39Zm-98.66-9.65c0-.32,0-.64,0-.97,0,.32,0,.64,0,.97Zm-.04,7.66c0-.33,0-.67,0-1,0,.33,0,.67,0,1ZM57.19,24.8c0,.24,0,.48-.01,.71,0-.24,0-.48,.01-.71Zm-8.66-.22c.03,.23,.06,.46,.09,.69-.03-.23-.06-.46-.09-.69Zm175.87,23.18c-.25,.07-.5,.14-.75,.21,.25-.07,.5-.14,.75-.21Zm-167.19-1.96c.08,.17,.16,.33,.24,.5-.08-.17-.16-.33-.24-.5Zm.24,.48c.1,.15,.2,.31,.29,.46-.1-.15-.2-.31-.29-.46ZM80.39,11.43c0,.15,0,.31,0,.46,0-.15,0-.31,0-.46Zm-6.96,.95c0-.16,0-.32,0-.48,0,.16,0,.32,0,.48Zm0,2.63c0-.16,0-.32,0-.48,0,.16,0,.32,0,.48Zm-24.83,23.64c0-.16,0-.32,0-.48,0,.16,0,.32,0,.48ZM17.99,16.4c-.07,.17-.15,.34-.22,.51,.07-.17,.15-.34,.22-.51Zm208.29,30.71c.08-.04,.16-.07,.24-.11-.08,.04-.16,.07-.24,.11ZM97.36,20.72c-.09-.06-.18-.12-.28-.19,.09,.06,.18,.12,.28,.19Zm98.32,11.01s-.07,.05-.07,.06c.01,.05,.04,.11,.07,.16,.04-.07,.04-.15,0-.22Zm-.02-11.94s-.07,.06-.06,.07c.02,.05,.06,.1,.09,.15,.04-.08,.03-.15-.03-.22Zm-115.28-7.65s-.09,.05-.08,.07c.02,.06,.05,.11,.08,.17,0-.08,0-.16,0-.24Zm-23.17,.47s-.09,.06-.08,.07c.02,.06,.05,.11,.08,.17,0-.08,0-.16,0-.24Zm16.22-1.43s.08-.06,.08-.07c-.02-.06-.06-.11-.1-.16,0,.08,.01,.15,.02,.23Zm30.09,31.02c.03-1.65,.03-3.3,0-4.95-.02-.81-.13-1.61-.2-2.42-.01,2.86-.02,5.73-.04,8.59,.08-.41,.23-.81,.23-1.22Zm-.2-7.86c0-.23,0-.47,0-.7,0,.23,0,.47,0,.7Zm-82.68,.21c.08,.02,.17,.03,.25,.05-.08-.02-.17-.03-.25-.05Z"/></svg>