<?xml version="1.0" encoding="UTF-8"?><svg id="Capa_1" xmlns="http://www.w3.org/2000/svg" viewBox="0 0 233.01 54.2"><defs><style>.cls-1{fill:#404446;}.cls-2{fill:#3e4345;}.cls-3{fill:#232426;}.cls-4{fill:#3e4244;}.cls-5{fill:#3c4248;}.cls-6{fill:#414547;}.cls-7{fill:#2c2e2e;}.cls-8{fill:#3e4245;}.cls-9{fill:#464848;}.cls-10{fill:#292a2c;}.cls-11{fill:#333536;}.cls-12{fill:#454646;}.cls-13{fill:#414446;}.cls-14{fill:#212222;}.cls-15{fill:#292b2a;}.cls-16{fill:#3f4346;}.cls-17{fill:#272828;}</style></defs><path class="cls-5" d="M159.56,21.81h-4.26c-.29-.82-.11-1.18,.69-1.11,.08,0,.16-.02,.24,0,2.61,.5,4.09-.85,5.38-2.94,1.78-2.9,3.78-5.67,5.73-8.47,.29-.42,.8-.67,1.21-1.01,.11,.08,.23,.16,.34,.24v12.05h8.42c.02,.4,.04,.72,.06,1.13h-8.47c0,.46,0,.84,0,1.22,0,6.07,0,12.14,0,18.21,0,.6,.03,1.2,.07,1.81,.09,1.6,.87,2.75,2.36,3.34,1.56,.61,3.09,.47,4.46-.53,1.18-.86,1.58-2.5,.91-3.52-.64-.97-2.2-1.15-3.47-.36-.44,.27-.79,.69-1.23,.96-.23,.14-.69,.25-.82,.13-.18-.16-.18-.56-.2-.86,0-.14,.11-.3,.2-.43,.95-1.48,4.02-1.91,5.58-.79,1.46,1.05,1.73,3.14,.42,4.69-.62,.73-1.49,1.39-2.38,1.74-3.17,1.23-6.48,1.55-9.83,.94-3.6-.66-5.42-3.22-5.43-7.55-.01-5.91,.01-11.82,.02-17.72,0-.35,0-.71,0-1.18Z"/><g><path class="cls-16" d="M134.37,22.73c1.28-.77,2.47-1.86,3.86-2.24,2.12-.58,4.38-.78,6.59-.13,2.97,.87,4.46,3.02,5.04,5.9,.18,.93,.15,1.89,.22,2.84-.07,.26-.2,.51-.21,.77-.01,4.54-.01,9.09,0,13.63,0,.29,.16,.58,.24,.87q.51,1.48,3.11,3.42h-13.89q2-2.18,2.39-4.14c.09-.37,.25-.74,.25-1.11,.02-5.55,.02-11.09,0-16.64,0-.37-.16-.74-.24-1.11-.8-2.37-2.04-2.99-4.48-2.22-1.77,.56-3.14,1.68-4.24,3.14-.21,.29-.3,.73-.31,1.1-.07,5.45-.13,10.9-.15,16.35,0,1.7,.19,3.37,1.98,4.26,.06,.03,.04,.21,.1,.51h-8.9c-.71,0-1.42,0-2.14,.01-.16,0-.32,0-.49,0,0-.18-.01-.35-.02-.53,1.85-.57,2.16-2.11,2.35-3.73,0-.33,0-.67,0-1,0-1.26,.02-2.53,.02-3.79,0-.8,0-1.6,0-2.41,0-.15,0-.31,0-.46,0-.32,0-.64,0-.97,0-1.35,0-2.7,0-4.05,0-.72,0-1.44,0-2.16-.06-.31-.15-.62-.19-.93q-.33-2.52-2.35-3.78c.13-.1,.23-.26,.34-.27,3.04-.32,5.39-1.94,7.58-3.92,.37-.34,.92-.48,1.39-.71,.14,.5,.32,.99,.4,1.5,.08,.47,.04,.95,.06,1.43v2.85c.7-.97,1.18-1.62,1.66-2.28Z"/><path class="cls-2" d="M19.39,12.92s.01-.06,.01-.06c.17-.41,.34-.82,.51-1.23,0,0,0,.02,0,.02,.44-.54,1.69-.55,.94-1.9,.89,.08,1.58,.2,2.27,.19,.7,0,1.4-.13,2.1-.21,1.42,3.56,2.86,7.11,4.25,10.68,3.11,7.96,6.23,15.92,9.28,23.91,.99,2.6,2.77,3.86,5.53,3.8,.51,0,1.01,0,1.52,0,.04,.15,.09,.29,.13,.44-.33,.12-.66,.33-1,.34-2.19,.03-4.37,0-6.56,.03-4.41,.07-8.82,.17-13.23,.24-.48,0-.96-.09-1.42-.34,.77-.21,1.54-.42,2.32-.62,1.77-.45,2.55-1.75,1.94-3.51-.83-2.39-1.78-4.74-2.67-7.11-.07-.18-.1-.37-.15-.56-.01-.52,.06-1.06-.06-1.55-.25-1.02-.57-2.02-.93-3.01-.17-.48,.02-1.32-.94-1.22-.08-.18-.18-.34-.24-.53-1.18-3.73-2.34-7.46-3.54-11.19-.11-.34-.43-.62-.66-.93-.35,.13-.69,.27-1.24,.48,.08-.84,.14-1.52,.21-2.2,0,0,0,.01,0,.01,.07-.17,.15-.34,.22-.51,0,0,0,.02,0,.02,1.44-.55,1.95-1.55,1.47-3.03-.05-.15-.04-.31-.05-.47Z"/><path class="cls-13" d="M96.6,20.64c.16-.04,.32-.07,.48-.11,.09,.06,.18,.12,.28,.19,2.44-.01,4.86-.29,7.28,.46,4.53,1.4,6.92,4.32,6.96,9.06,.05,5.01-.04,10.02-.06,15.03,0,.58,.07,1.16,.14,2.1,.74-.47,1.29-.74,1.73-1.13,.66-.58,1.21-1.26,1.86-1.85,.18-.16,.54-.11,.82-.16,.03,.27,.18,.61,.08,.81-1.11,2.05-4.97,3.92-7.29,3.57-2.22-.34-3.37-1.65-3.83-4.53-1.43,1.84-3.21,3.02-5.27,3.8-2.05,.78-4.16,1.04-6.32,.79-4.42-.52-6.38-4.67-4.15-8.87,1.32-2.49,3.53-4.11,6.04-5.19,2.14-.92,4.4-1.55,6.64-2.21,.89-.26,1.34-.6,1.31-1.61-.07-2.19-.03-4.38-.01-6.56,.01-1.16-.49-1.78-1.68-1.83-1.51-.06-3.01-.14-4.52-.21-.1-.53-1.11-.79-.48-1.55Zm6.71,13c-.14-.08-.34-.28-.41-.24-1.68,.88-3.38,1.73-4.99,2.71-1.89,1.15-2.96,2.91-3.38,5.08-.61,3.16,1.51,5.15,4.01,4.77,1.78-.27,3.6-.9,4.74-2.55,.08-.41,.23-.81,.23-1.22,.03-1.65,.03-3.3,0-4.95-.02-.81-.13-1.61-.2-2.42,0-.16,0-.33,0-.49,0-.23,0-.47,0-.7Z"/><path class="cls-6" d="M80.37,12.38c0,.56,0,1.11,0,1.67-.03,.03-.08,.06-.08,.08,.01,3.79,.03,7.58,.04,11.37-.03,5.37-.07,10.73-.1,16.1,0,.56-.01,1.11,0,1.67,.01,2.14,.17,4.2,2.92,4.79-.05,.09-.1,.18-.15,.27h-12.26c1.34-.79,2.29-1.88,2.45-3.48,.01-1.35,.02-2.7,.03-4.06,0-.4,0-.81,0-1.21,0-.39,0-.78,0-1.18,.04-6.66,.07-13.31,.11-19.97,0-1.15,.06-2.29,.08-3.44,0-.16,0-.32,0-.48,0-.72,0-1.43,0-2.15,0-.16,0-.32,0-.48,0-.24,0-.48,0-.72,.03-.02,.08-.06,.08-.07-.02-.06-.06-.11-.1-.16q-.6-1.63-4.2-.99c.28-.44,.38-.83,.61-.93,2.45-1.11,4.88-2.26,7.39-3.2,.91-.34,2.03-.17,3.18-.23,0,2.02,0,3.93,0,5.84,0,.15,0,.31,0,.46,.03,.06,.06,.12,.07,.18,0,.02-.05,.05-.07,.07-.03,.02-.09,.05-.08,.07,.02,.06,.05,.11,.08,.17Z"/><path class="cls-1" d="M48.59,35.54c0-.16,0-.32,0-.48,0-2.07,.02-4.13,.02-6.2,0-1.2,0-2.4,0-3.6-.03-.23-.06-.46-.09-.69h-4.25c.36-.43,.49-.73,.72-.82,.32-.12,.71-.16,1.06-.11,1.83,.26,2.95-.56,3.91-2.1,1.86-2.99,3.91-5.87,5.89-8.78,.58-.85,.9-.87,1.35-.15-.03,.02-.09,.06-.08,.07,.02,.06,.05,.11,.08,.17,0,.24,0,.48,0,.71-.08,.29-.23,.58-.23,.87-.02,2.6-.02,5.19,0,7.79,0,.29,.14,.59,.21,.88,.44,.1,.88,.29,1.33,.29,2.06,.04,4.13,.02,6.19,.07,.34,0,.66,.31,.99,.47-.05,.19-.11,.39-.16,.58-2.33,0-4.67-.01-7,.01-.45,0-.89,.16-1.33,.25,0,.24,0,.48-.01,.71-.02,3.74-.05,7.48-.07,11.23-.63,.71-.57,1.43-.03,2.15,0,.32-.02,.63-.02,.95-.11,.15-.31,.29-.31,.45-.07,1.64-.13,3.29-.13,4.93,0,.2,.4,.39,.61,.59,0,0,0-.02,0-.02,.08,.17,.16,.33,.24,.5,0,0,0-.01,0-.01,.1,.15,.2,.31,.29,.46,0,0-.02-.02-.02-.02-.22,.97,.65,2.14-.53,2.94-.16,.02-.32,.04-.48,.07-.15-.18-.31-.35-.46-.53-.18,.2-.35,.41-.53,.61-.3-.02-.59-.03-.89-.05-.46-.51-.92-.93-1.51-.16-.07-.02-.15-.05-.22-.07-.08-1.59-1.16-.83-1.93-.82-1.99-1.21-2.45-3.16-2.57-5.28,0-.47-.01-.95-.02-1.42,0-1.12,0-2.23-.01-3.35,0-.16,0-.32,0-.48,0-.16,0-.32,0-.48,0-.72,0-1.43,0-2.15Z"/><path class="cls-4" d="M224.14,45.67c.25-.19,.52-.37,.76-.57,2.3-1.84,2.44-4.29,.31-6.35-1.83-1.77-4.01-2.94-6.44-3.72-2.37-.76-4.73-1.61-7.02-2.6-1.82-.78-3.09-2.24-3.64-4.19-.88-3.1,.45-6.1,3.47-7.54,5.05-2.4,10.13-2.22,15.17,.1,.21,.1,.41,.2,.71,.34,.24-.46,.42-.89,.68-1.27,.13-.18,.42-.32,.64-.33,.11,0,.33,.34,.33,.52-.01,2.11-.05,4.22-.11,6.32,0,.18-.22,.36-.33,.54-.21-.14-.56-.23-.61-.41-1.09-3.71-4.22-4.34-7.37-4.79-1.26-.18-2.63-.05-3.89,.23-1.71,.37-2.82,1.68-2.91,3.07-.12,1.73,.94,2.79,2.33,3.41,1.91,.86,3.94,1.45,5.88,2.26,1.9,.79,3.8,1.59,5.59,2.59,2.98,1.67,4.25,4.34,3.84,7.71-.36,3.03-2.35,4.82-5.01,5.98-.08,.04-.16,.07-.24,.11-.08,.04-.16,.08-.24,.11-.56-.27-1.11-.53-1.67-.8-.07,.11-.14,.22-.2,.33,.07,.33,.15,.66,.22,1,0,0,.01,0,.01,0-.25,.07-.5,.14-.75,.21-.15,.03-.31,.05-.46,.08-.33-.51-.65-1.02-.98-1.52,.04-.05,.08-.06,.13-.02,.4-.03,1.08,.62,1.07-.43h.01c.23-.13,.47-.26,.7-.39Z"/><path class="cls-8" d="M195.68,30.76c0,.32,0,.65,0,.97-.03,.02-.07,.05-.07,.06,.01,.05,.04,.11,.07,.16,0,3.73,.06,7.46,.01,11.19-.03,2,.5,3.52,2.68,4.01,.19,.04,.32,.34,.48,.51-.22,.11-.44,.31-.66,.31-4.25,.01-8.49,0-12.74-.01-.24,0-.47-.15-.8-.4,1.69-.67,3.3-1.38,3.53-3.43,.12-.39,.35-.77,.35-1.16,.02-5.13,.02-10.26,0-15.39,0-.36-.18-.73-.28-1.09-.25-2.25-1.66-3.16-3.93-3.09,.03-.12,.05-.24,.08-.36,.28-.14,.55-.31,.85-.4,2.97-.97,5.94-1.95,8.93-2.87,.44-.14,.98,.02,1.47,.04-.02,.02-.07,.06-.06,.07,.02,.05,.06,.1,.09,.15,0,.24,0,.49,0,.73-.07,.3-.2,.6-.2,.9-.02,2.74-.02,5.48,0,8.22,0,.3,.13,.6,.2,.9Z"/><path class="cls-1" d="M192.24,8.38c.7-.67,1.33-1.46,2.13-1.99,1.25-.83,2.9-.66,4.01,.22,1.04,.82,1.64,2.43,1,3.76-.68,1.39-1.62,2.71-2.68,3.85-1.26,1.36-2.77,2.48-4.4,3.91-2.04-1.91-4.1-3.74-6.04-5.71-.55-.55-.87-1.44-1.04-2.22-.36-1.61,.36-3.11,1.63-3.76,1.41-.74,3.1-.5,4.28,.64,.44,.43,.8,.93,1.12,1.32Z"/><path class="cls-9" d="M23.24,31.26c.96-.1,.77,.73,.94,1.22,.36,.99,.68,1.99,.93,3.01,.12,.49,.04,1.03,.06,1.55-.35-1.5-1.31-1.77-2.76-1.69-3.05,.18-6.12,.16-9.18,.17-.74,0-1.12,.2-1.4,.91-.85,2.26-1.79,4.49-2.68,6.74-.23,.59-.41,1.2-.53,1.82-.33,1.74,.33,2.77,2.06,3.13,.97,.2,1.97,.23,2.96,.33,.61,.06,1.21,.12,1.82,.17,.01,.13,.03,.27,.04,.4-.27,.09-.54,.26-.82,.27-4.21,.03-8.43,.04-12.64,.02-.26,0-.51-.31-.77-.48,.19-.2,.35-.54,.57-.59,3.04-.68,4.55-2.99,5.61-5.55,2.72-6.59,5.29-13.24,7.93-19.86,.79-1.98,1.59-3.96,2.39-5.94-.06,.68-.13,1.36-.21,2.2,.55-.21,.89-.35,1.24-.48-1.63,4.16-3.27,8.32-4.9,12.48-.42,1.08-.84,2.16-1.33,3.43,1.54,0,2.84,0,4.14,0,1.31,0,2.62,.02,3.92,.03,.08,.02,.17,.03,.25,.05,1.02-.11,2.04-.22,3.1-.33-.26-1.05-.51-2.03-.75-3.01Z"/><path class="cls-12" d="M222.22,46.52c.33,.51,.65,1.02,.98,1.52-4.73,.85-9.35,.83-13.41-2.21-1.79-1.34-2.87-3.16-2.15-5.5,.71-2.29,2.48-3.52,4.8-3.63,1.7-.08,3.49,.08,5.13,.54,1.66,.47,2.37,2.03,1.96,3.34-.4,1.28-2.63,2.67-3.91,2.41-.19-.04-.5-.26-.49-.39,0-.22,.17-.5,.36-.62,.46-.3,1.02-.45,1.46-.78,1.16-.85,.99-2.36-.31-2.98-1.56-.74-4.83-.2-6.08,1.02-1.37,1.33-1.43,3.23-.07,4.68,1.83,1.96,4.22,2.85,6.8,3.03,1.63,.11,3.3-.27,4.95-.43Z"/><path class="cls-9" d="M96.6,20.64c-.63,.76,.38,1.02,.48,1.55-1.16,.24-2.35,.39-3.46,.77-.76,.26-1.52,.72-2.08,1.3-1.13,1.16-.6,2.9,1,3.16,.9,.15,1.86-.15,2.8-.2,.3-.02,.61,.11,.91,.18-.09,.31-.09,.71-.28,.93-1.19,1.28-4.53,1.73-6.04,.86-1.56-.9-1.96-3.3-.69-5.06,.56-.78,1.32-1.6,2.17-1.94,1.66-.68,3.45-1.04,5.19-1.54Z"/><path class="cls-9" d="M57.2,49.65c1.17-.8,.31-1.97,.53-2.94,1.15,.47,2.26,1.14,3.46,1.37,1.5,.3,2.9-.78,3.4-2.21,.34-.97,.28-1.97-.58-2.45-.66-.37-1.68-.43-2.43-.23-.79,.21-1.45,.9-2.49,1.32,.1-.45,.08-.98,.33-1.33,.94-1.29,2.33-1.44,3.76-1.17,1.06,.2,1.92,.78,2.19,1.93,.34,1.43-.13,2.64-1.27,3.48-2.04,1.5-4.38,2.17-6.91,2.22Z"/><path class="cls-9" d="M25.22,9.73c-.7,.07-1.4,.2-2.1,.21-.69,0-1.38-.11-2.27-.19,.75,1.35-.5,1.36-.94,1.9,.07-.22,.12-.45,.2-.67,.83-2.24,1.45-2.62,3.84-2.41,.74,.06,1.25,.34,1.27,1.17Z"/><path class="cls-15" d="M141.73,24.8c.08,.37,.24,.74,.24,1.11,.01,5.55,.01,11.09,0,16.64,0,.37-.16,.74-.25,1.11,0-4.9,0-9.81,0-14.71,0-1.38,0-2.77,.01-4.15Z"/><path class="cls-7" d="M188.26,26.48c.1,.36,.27,.73,.28,1.09,.02,5.13,.02,10.26,0,15.39,0,.39-.23,.77-.35,1.16,.03-5.36,.05-10.73,.08-16.09,0-.52,0-1.03,0-1.55Z"/><path class="cls-14" d="M150.11,44.38c-.08-.29-.24-.58-.24-.87-.01-4.54-.01-9.09,0-13.63,0-.26,.13-.51,.21-.77,.01,5.09,.02,10.18,.03,15.27Z"/><path class="cls-9" d="M57.22,45.8c-.21-.2-.61-.39-.61-.59,0-1.64,.06-3.29,.13-4.93,0-.15,.2-.3,.31-.45,.05,1.99,.11,3.97,.16,5.96Z"/><path class="cls-10" d="M80.33,25.5c-.02-3.79-.03-7.58-.04-11.37,0-.03,.05-.06,.08-.08-.01,3.82-.02,7.64-.03,11.46Z"/><path class="cls-9" d="M19.39,12.92c.02,.16,0,.32,.05,.47,.48,1.48-.02,2.48-1.47,3.03,.47-1.17,.94-2.33,1.41-3.5Z"/><path class="cls-3" d="M195.68,30.76c-.07-.3-.2-.6-.2-.9-.02-2.74-.01-5.48,0-8.22,0-.3,.13-.6,.2-.9,0,3.34,0,6.68,0,10.01Z"/><path class="cls-7" d="M57.17,23.12c-.07-.29-.21-.59-.21-.88-.01-2.6-.01-5.19,0-7.79,0-.29,.15-.58,.23-.87,0,3.18-.02,6.37-.03,9.55Z"/><path class="cls-12" d="M224.39,47.75c-.07-.33-.15-.66-.22-1,.07-.11,.14-.22,.2-.33,.56,.27,1.11,.53,1.67,.8-.55,.18-1.1,.36-1.65,.53Z"/><path class="cls-10" d="M48.62,28.86c0,2.07-.02,4.13-.02,6.2,0-2.07,.02-4.13,.02-6.2Z"/><path class="cls-9" d="M51.18,48.7c.76-.01,1.85-.77,1.93,.82-.64-.27-1.29-.55-1.93-.82Z"/><path class="cls-9" d="M57.07,38.89c-.54-.73-.59-1.44,.03-2.15-.01,.72-.02,1.44-.03,2.15Z"/><path class="cls-10" d="M73.22,40.8c-.01,1.35-.02,2.7-.03,4.06,.01-1.35,.02-2.7,.03-4.06Z"/><path class="cls-9" d="M53.33,49.59c.59-.78,1.06-.36,1.51,.16-.5-.05-1.01-.11-1.51-.16Z"/><path class="cls-9" d="M55.73,49.8c.18-.2,.35-.41,.53-.61,.15,.18,.31,.35,.46,.53-.33,.03-.66,.06-.99,.08Z"/><path class="cls-11" d="M125.48,36.49c0,.8,0,1.6,0,2.41,0-.8,0-1.6,0-2.41Z"/><path class="cls-10" d="M48.59,35.54c0,.72,0,1.43,0,2.15,0-.72,0-1.43,0-2.15Z"/><path class="cls-11" d="M125.48,28.85c0,.72,0,1.44,0,2.16,0-.72,0-1.44,0-2.16Z"/><path class="cls-7" d="M123.59,47.95c.71,0,1.42,0,2.14-.01-.71,0-1.42,0-2.14,.01Z"/><path class="cls-12" d="M223.42,46.06c0,1.05-.67,.4-1.07,.43,.36-.14,.71-.29,1.07-.43Z"/><path class="cls-7" d="M123.09,47.42c0,.18,.01,.35,.02,.53h-.95c-.01-.11-.03-.23-.04-.34,.32-.06,.65-.12,.97-.18Z"/><path class="cls-9" d="M19.91,11.63c-.17,.41-.34,.82-.51,1.23,.17-.41,.34-.82,.51-1.23Z"/><path class="cls-10" d="M48.6,41.99c0,.47,.01,.95,.02,1.42,0-.47-.01-.95-.02-1.42Z"/><path class="cls-10" d="M73.23,38.42c0,.39,0,.78,0,1.18,0-.39,0-.78,0-1.18Z"/><path class="cls-12" d="M224.14,45.67c-.23,.13-.47,.26-.7,.39,.23-.13,.47-.26,.7-.39Z"/><path class="cls-11" d="M125.48,35.06c0,.32,0,.64,0,.97,0-.32,0-.64,0-.97Z"/><path class="cls-11" d="M125.44,42.69c0,.33,0,.67,0,1,0-.33,0-.67,0-1Z"/><path class="cls-9" d="M57.18,25.51c0-.24,0-.48,.01-.71,0,.24,0,.48-.01,.71Z"/><path class="cls-10" d="M48.53,24.57c.03,.23,.06,.46,.09,.69-.03-.23-.06-.46-.09-.69Z"/><path class="cls-12" d="M223.66,47.96c.25-.07,.5-.14,.75-.21-.25,.07-.5,.14-.75,.21Z"/><path class="cls-9" d="M57.45,46.28c-.08-.17-.16-.33-.24-.5,.08,.17,.16,.33,.24,.5Z"/><path class="cls-9" d="M57.74,46.73c-.1-.15-.2-.31-.29-.46,.1,.15,.2,.31,.29,.46Z"/><path class="cls-10" d="M80.38,11.89c0-.15,0-.31,0-.46,0,.15,0,.31,0,.46Z"/><path class="cls-11" d="M73.43,11.9c0,.16,0,.32,0,.48,0-.16,0-.32,0-.48Z"/><path class="cls-11" d="M73.43,14.52c0,.16,0,.32,0,.48,0-.16,0-.32,0-.48Z"/><path class="cls-10" d="M48.59,38.17c0,.16,0,.32,0,.48,0-.16,0-.32,0-.48Z"/><path class="cls-9" d="M17.99,16.4c-.07,.17-.15,.34-.22,.51,.07-.17,.15-.34,.22-.51Z"/><path class="cls-12" d="M226.28,47.11c.08-.04,.16-.07,.24-.11-.08,.04-.16,.07-.24,.11Z"/><path class="cls-9" d="M97.36,20.72c-.09-.06-.18-.12-.28-.19,.09,.06,.18,.12,.28,.19Z"/><path class="cls-3" d="M195.68,31.95c-.02-.05-.05-.1-.07-.16,0-.01,.05-.04,.07-.06,.03,.07,.03,.15,0,.22Z"/><path class="cls-3" d="M195.68,20.01s-.07-.09-.09-.15c0-.01,.04-.05,.06-.07,.06,.07,.07,.14,.03,.22Z"/><path class="cls-10" d="M80.37,12.38c-.03-.06-.06-.11-.08-.17,0-.01,.05-.05,.08-.07,0,.08,0,.16,0,.24Z"/><path class="cls-7" d="M57.2,12.85c-.03-.06-.06-.11-.08-.17,0-.02,.05-.05,.08-.07,0,.08,0,.16,0,.24Z"/><path class="cls-11" d="M73.41,10.95c.03,.05,.07,.1,.1,.16,0,.01-.05,.05-.08,.07,0-.08-.01-.15-.02-.23Z"/><path class="cls-17" d="M103.28,43.42c.01-2.86,.02-5.73,.04-8.59,.07,.81,.18,1.61,.2,2.42,.03,1.65,.03,3.3,0,4.95,0,.41-.15,.81-.23,1.22Z"/><path class="cls-17" d="M103.32,34.34c0-.23,0-.47,0-.7,0,.23,0,.47,0,.7Z"/><path class="cls-11" d="M20.64,34.55c.08,.02,.17,.03,.25,.05-.08-.02-.17-.03-.25-.05Z"/></g></svg>