<?xml version="1.0" encoding="UTF-8" standalone="no"?>
<!-- Created with Friction - https://friction.graphics -->
<svg xmlns="http://www.w3.org/2000/svg" version="1.1" xmlns:xlink="http://www.w3.org/1999/xlink" viewBox="0 0 1920 1080">
 <g transform="translate(116.315 27.7312)">
  <g transform="translate(830.426 426.683)">
   <g transform="rotate(0)">
    <g transform="scale(7.86814 7.86814)">
     <g transform="skewX(0) skewY(0)">
      <g opacity="1" transform="translate(-116.315 -27.7312)">
       <path stroke="none" d="M159.56 21.81C159.56 21.81 155.3 21.81 155.3 21.81C155.01 20.99 155.19 20.63 155.99 20.7C156.07 20.7 156.15 20.68 156.23 20.7C158.84 21.2 160.32 19.85 161.61 17.76C163.39 14.86 165.39 12.09 167.34 9.29C167.63 8.87 168.14 8.62 168.55 8.28C168.66 8.36 168.78 8.44 168.89 8.52C168.89 8.52 168.89 20.57 168.89 20.57C168.89 20.57 177.31 20.57 177.31 20.57C177.33 20.97 177.35 21.29 177.37 21.7C177.37 21.7 168.9 21.7 168.9 21.7C168.9 22.16 168.9 22.54 168.9 22.92C168.9 28.99 168.9 35.06 168.9 41.13C168.9 41.73 168.93 42.33 168.97 42.94C169.06 44.54 169.84 45.69 171.33 46.28C172.89 46.89 174.42 46.75 175.79 45.75C176.97 44.89 177.37 43.25 176.7 42.23C176.06 41.26 174.5 41.08 173.23 41.87C172.79 42.14 172.44 42.56 172 42.83C171.77 42.97 171.31 43.08 171.18 42.96C171 42.8 171 42.4 170.98 42.1C170.98 41.96 171.09 41.8 171.18 41.67C172.13 40.19 175.2 39.76 176.76 40.88C178.22 41.93 178.49 44.02 177.18 45.57C176.56 46.3 175.69 46.96 174.8 47.31C171.63 48.54 168.32 48.86 164.97 48.25C161.37 47.59 159.55 45.03 159.54 40.7C159.53 34.79 159.55 28.88 159.56 22.98C159.56 22.63 159.56 22.27 159.56 21.8C159.56 21.8 159.56 21.81 159.56 21.81ZM132.71 25.01C132.71 25.01 132.71 22.16 132.71 22.16C132.69 21.68 132.73 21.2 132.65 20.73C132.57 20.22 132.39 19.73 132.25 19.23C131.78 19.46 131.23 19.6 130.86 19.94C128.67 21.92 126.32 23.54 123.28 23.86C123.16 23.87 123.06 24.03 122.94 24.13C124.287 24.9633 125.07 26.2233 125.29 27.91C125.33 28.22 125.42 28.53 125.48 28.84C125.48 29.56 125.48 30.28 125.48 31C125.48 32.35 125.48 33.7 125.48 35.05C125.48 35.37 125.48 35.69 125.48 36.02C125.48 36.17 125.48 36.33 125.48 36.48C125.48 37.28 125.48 38.08 125.48 38.89C125.48 40.15 125.46 41.42 125.46 42.68C125.46 43.01 125.46 43.35 125.46 43.68C125.27 45.3 124.96 46.84 123.11 47.41C123.11 47.59 123.12 47.76 123.13 47.94C123.29 47.94 123.45 47.94 123.62 47.94C124.33 47.94 125.04 47.94 125.76 47.93C125.76 47.93 134.66 47.93 134.66 47.93C134.61 47.64 134.62 47.45 134.56 47.42C132.77 46.52 132.58 44.86 132.58 43.16C132.6 37.71 132.66 32.26 132.73 26.81C132.73 26.44 132.82 25.99 133.04 25.71C134.14 24.25 135.51 23.13 137.28 22.57C139.72 21.79 140.96 22.42 141.76 24.79C141.84 25.16 142 25.53 142 25.9C142.01 31.45 142.01 36.99 142 42.54C142 42.91 141.84 43.28 141.75 43.65C141.49 44.95 140.693 46.33 139.36 47.79C139.36 47.79 153.25 47.79 153.25 47.79C151.517 46.5033 150.48 45.3633 150.14 44.37C150.06 44.08 149.9 43.79 149.9 43.5C149.89 38.96 149.89 34.41 149.9 29.87C149.9 29.61 150.03 29.36 150.11 29.1C150.04 28.15 150.07 27.18 149.89 26.26C149.32 23.37 147.82 21.23 144.85 20.36C142.64 19.71 140.39 19.91 138.26 20.49C136.87 20.87 135.68 21.96 134.4 22.73C133.92 23.39 133.45 24.04 132.74 25.01C132.74 25.01 132.71 25.01 132.71 25.01ZM19.45 13.39C19.93 14.87 19.43 15.87 17.98 16.42C17.98 16.42 17.98 16.4 17.98 16.4C17.91 16.57 17.83 16.74 17.76 16.91C17.76 16.91 17.76 16.91 17.76 16.91C17.7 17.58 17.63 18.26 17.55 19.1C18.1 18.89 18.44 18.75 18.79 18.62C19.01 18.93 19.34 19.21 19.45 19.55C20.65 23.27 21.81 27.01 22.99 30.74C23.05 30.92 23.15 31.09 23.23 31.27C24.19 31.17 24 32 24.17 32.49C24.53 33.48 24.85 34.48 25.1 35.5C25.22 35.99 25.14 36.53 25.16 37.05C25.21 37.24 25.25 37.43 25.31 37.61C26.2 39.98 27.15 42.33 27.98 44.72C28.59 46.48 27.81 47.78 26.04 48.23C25.27 48.43 24.5 48.64 23.72 48.85C24.18 49.1 24.66 49.2 25.14 49.19C29.55 49.12 33.96 49.02 38.37 48.95C40.56 48.92 42.74 48.95 44.93 48.92C45.26 48.92 45.59 48.7 45.93 48.58C45.89 48.43 45.84 48.29 45.8 48.14C45.29 48.14 44.79 48.14 44.28 48.14C41.53 48.19 39.75 46.94 38.75 44.34C35.7 36.35 32.58 28.39 29.47 20.43C28.08 16.86 26.64 13.31 25.22 9.75C24.52 9.82 23.82 9.95 23.12 9.96C22.43 9.96 21.74 9.85 20.85 9.77C21.6 11.12 20.35 11.13 19.91 11.67C19.91 11.67 19.91 11.65 19.91 11.65C19.74 12.06 19.57 12.47 19.4 12.88C19.4 12.88 19.39 12.94 19.39 12.94C19.41 13.1 19.39 13.26 19.44 13.41C19.44 13.41 19.45 13.39 19.45 13.39ZM97.09 22.19C98.6 22.26 100.1 22.34 101.61 22.4C102.8 22.45 103.3 23.07 103.29 24.23C103.27 26.42 103.24 28.61 103.3 30.79C103.33 31.8 102.88 32.14 101.99 32.4C99.75 33.06 97.49 33.69 95.35 34.61C92.84 35.69 90.63 37.31 89.31 39.8C87.08 44 89.04 48.16 93.46 48.67C95.62 48.92 97.74 48.67 99.78 47.88C101.84 47.1 103.61 45.92 105.05 44.08C105.5 46.95 106.65 48.27 108.88 48.61C111.19 48.96 115.06 47.09 116.17 45.04C116.28 44.84 116.13 44.51 116.09 44.23C115.81 44.28 115.45 44.23 115.27 44.39C114.62 44.97 114.06 45.66 113.41 46.24C112.97 46.63 112.42 46.89 111.68 47.37C111.62 46.43 111.54 45.85 111.54 45.27C111.56 40.26 111.65 35.25 111.6 30.24C111.55 25.5 109.17 22.57 104.64 21.18C102.22 20.43 99.79 20.71 97.36 20.72C97.27 20.66 97.18 20.6 97.08 20.53C96.92 20.57 96.76 20.6 96.6 20.64C95.97 21.4 96.98 21.66 97.08 22.19C97.08 22.19 97.09 22.19 97.09 22.19ZM103.32 34.34C103.32 34.5 103.32 34.67 103.32 34.83C103.39 35.64 103.5 36.44 103.52 37.25C103.55 38.9 103.55 40.55 103.52 42.2C103.52 42.61 103.37 43.01 103.29 43.42C102.14 45.07 100.33 45.7 98.55 45.97C96.05 46.34 93.93 44.36 94.54 41.2C94.96 39.03 96.03 37.27 97.92 36.12C99.53 35.13 101.24 34.29 102.91 33.41C102.99 33.37 103.18 33.56 103.32 33.65C103.32 33.88 103.32 34.12 103.32 34.35C103.32 34.35 103.32 34.34 103.32 34.34ZM80.3 12.21C80.3 12.21 80.35 12.16 80.38 12.14C80.41 12.12 80.46 12.09 80.45 12.07C80.44 12.01 80.4 11.95 80.38 11.89C80.38 11.74 80.38 11.58 80.38 11.43C80.38 9.52 80.38 7.61 80.38 5.59C79.22 5.66 78.11 5.48 77.2 5.82C74.69 6.76 72.26 7.91 69.81 9.02C69.58 9.12 69.48 9.51 69.2 9.95C71.6 9.52333 73 9.85333 73.4 10.94C73.43 10.99 73.47 11.04 73.5 11.1C73.5 11.11 73.45 11.15 73.42 11.17C73.42 11.41 73.42 11.65 73.42 11.89C73.42 12.05 73.42 12.21 73.42 12.37C73.42 13.09 73.42 13.8 73.42 14.52C73.42 14.68 73.42 14.84 73.42 15C73.39 16.15 73.34 17.29 73.34 18.44C73.3 25.1 73.27 31.75 73.23 38.41C73.23 38.8 73.23 39.19 73.23 39.59C73.23 39.99 73.23 40.4 73.23 40.8C73.22 42.15 73.21 43.5 73.2 44.86C73.05 46.46 72.1 47.55 70.75 48.34C70.75 48.34 83.01 48.34 83.01 48.34C83.06 48.25 83.11 48.16 83.16 48.07C80.41 47.48 80.25 45.42 80.24 43.28C80.24 42.72 80.24 42.17 80.24 41.61C80.27 36.24 80.31 30.88 80.34 25.51C80.32 21.72 80.31 17.93 80.3 14.14C80.3 14.11 80.35 14.08 80.38 14.06C80.38 13.5 80.38 12.95 80.38 12.39C80.35 12.33 80.32 12.28 80.3 12.22C80.3 12.22 80.3 12.21 80.3 12.21ZM48.59 37.69C48.59 37.85 48.59 38.01 48.59 38.17C48.59 38.33 48.59 38.49 48.59 38.65C48.59 39.77 48.59 40.88 48.6 42C48.6 42.47 48.61 42.95 48.62 43.42C48.74 45.54 49.19 47.49 51.19 48.7C51.95 48.69 53.04 47.93 53.12 49.52C53.19 49.54 53.27 49.57 53.34 49.59C53.93 48.81 54.4 49.23 54.85 49.75C55.15 49.77 55.44 49.78 55.74 49.8C55.92 49.6 56.09 49.39 56.27 49.19C56.42 49.37 56.58 49.54 56.73 49.72C56.89 49.7 57.05 49.68 57.21 49.65C58.38 48.85 57.52 47.68 57.74 46.71C57.74 46.71 57.76 46.73 57.76 46.73C57.66 46.58 57.56 46.42 57.47 46.27C57.47 46.27 57.47 46.28 57.47 46.28C57.39 46.11 57.31 45.95 57.23 45.78C57.23 45.78 57.23 45.8 57.23 45.8C57.02 45.6 56.62 45.41 56.62 45.21C56.62 43.57 56.68 41.92 56.75 40.28C56.75 40.13 56.95 39.98 57.06 39.83C57.06 39.51 57.08 39.2 57.08 38.88C56.54 38.15 56.49 37.44 57.11 36.73C57.13 32.99 57.16 29.25 57.18 25.5C57.18 25.26 57.18 25.02 57.19 24.79C57.63 24.7 58.08 24.55 58.52 24.54C60.85 24.51 63.19 24.53 65.52 24.53C65.57 24.34 65.63 24.14 65.68 23.95C65.35 23.79 65.02 23.49 64.69 23.48C62.63 23.42 60.56 23.45 58.5 23.41C58.06 23.41 57.62 23.22 57.17 23.12C57.1 22.83 56.96 22.53 56.96 22.24C56.95 19.64 56.95 17.05 56.96 14.45C56.96 14.16 57.11 13.87 57.19 13.58C57.19 13.34 57.19 13.1 57.19 12.87C57.16 12.81 57.13 12.76 57.11 12.7C57.11 12.68 57.16 12.65 57.19 12.63C56.74 11.9 56.43 11.92 55.84 12.78C53.86 15.7 51.81 18.57 49.95 21.56C48.99 23.11 47.87 23.92 46.04 23.66C45.7 23.61 45.3 23.64 44.98 23.77C44.76 23.86 44.62 24.16 44.26 24.59C44.26 24.59 48.51 24.59 48.51 24.59C48.54 24.82 48.57 25.05 48.6 25.28C48.6 26.48 48.6 27.68 48.6 28.88C48.6 30.95 48.58 33.01 48.58 35.08C48.58 35.24 48.58 35.4 48.58 35.56C48.58 36.28 48.58 36.99 48.58 37.71C48.58 37.71 48.59 37.69 48.59 37.69ZM223.44 46.06C223.44 46.06 223.43 46.06 223.43 46.06C223.43 47.12 222.76 46.46 222.36 46.49C222.31 46.45 222.27 46.46 222.23 46.51C222.56 47.02 222.88 47.53 223.21 48.03C223.36 48 223.52 47.98 223.67 47.95C223.92 47.88 224.17 47.81 224.42 47.74C224.42 47.74 224.41 47.74 224.41 47.74C224.34 47.41 224.26 47.08 224.19 46.74C224.26 46.63 224.33 46.52 224.39 46.41C224.95 46.68 225.5 46.94 226.06 47.21C226.14 47.17 226.22 47.13 226.3 47.1C226.38 47.06 226.46 47.03 226.54 46.99C229.2 45.82 231.19 44.04 231.55 41.01C231.95 37.64 230.68 34.97 227.71 33.3C225.92 32.3 224.02 31.5 222.12 30.71C220.18 29.9 218.15 29.31 216.24 28.45C214.85 27.83 213.8 26.77 213.91 25.04C214 23.65 215.11 22.34 216.82 21.97C218.08 21.7 219.45 21.56 220.71 21.74C223.86 22.19 226.99 22.82 228.08 26.53C228.13 26.71 228.48 26.81 228.69 26.94C228.81 26.76 229.02 26.58 229.02 26.4C229.08 24.29 229.11 22.18 229.13 20.08C229.13 19.89 228.91 19.55 228.8 19.56C228.58 19.56 228.29 19.71 228.16 19.89C227.89 20.27 227.71 20.71 227.48 21.16C227.19 21.02 226.98 20.92 226.77 20.82C221.73 18.49 216.65 18.32 211.6 20.72C208.58 22.15 207.25 25.16 208.13 28.26C208.68 30.2 209.94 31.66 211.77 32.45C214.06 33.43 216.41 34.29 218.79 35.05C221.22 35.83 223.4 37 225.23 38.77C227.36 40.82 227.22 43.28 224.92 45.12C224.67 45.32 224.41 45.5 224.16 45.69C223.93 45.82 223.69 45.95 223.46 46.08C223.46 46.08 223.44 46.06 223.44 46.06ZM195.49 29.86C195.47 27.12 195.48 24.38 195.49 21.64C195.49 21.34 195.62 21.04 195.69 20.74C195.69 20.5 195.69 20.25 195.69 20.01C195.66 19.96 195.62 19.92 195.6 19.86C195.6 19.85 195.64 19.81 195.66 19.79C195.17 19.77 194.64 19.62 194.19 19.75C191.2 20.67 188.23 21.65 185.26 22.62C184.96 22.72 184.69 22.89 184.41 23.02C184.38 23.14 184.36 23.26 184.33 23.38C186.59 23.31 188.01 24.22 188.26 26.47C188.36 26.83 188.53 27.2 188.54 27.56C188.56 32.69 188.56 37.82 188.54 42.95C188.54 43.34 188.31 43.72 188.19 44.11C187.96 46.16 186.36 46.87 184.66 47.54C184.99 47.79 185.22 47.94 185.46 47.94C189.71 47.96 193.95 47.97 198.2 47.95C198.42 47.95 198.64 47.75 198.86 47.64C198.7 47.46 198.57 47.17 198.38 47.13C196.2 46.64 195.67 45.13 195.7 43.12C195.75 39.39 195.7 35.66 195.69 31.93C195.67 31.88 195.64 31.83 195.62 31.77C195.62 31.76 195.67 31.73 195.69 31.71C195.69 31.39 195.69 31.06 195.69 30.74C195.62 30.44 195.49 30.14 195.49 29.84C195.49 29.84 195.49 29.86 195.49 29.86ZM191.13 7.07C189.95 5.92 188.26 5.69 186.85 6.43C185.59 7.09 184.87 8.58 185.22 10.19C185.39 10.98 185.71 11.86 186.26 12.41C188.2 14.37 190.26 16.21 192.3 18.12C193.93 16.7 195.44 15.57 196.7 14.21C197.76 13.07 198.71 11.76 199.38 10.36C200.02 9.03 199.42 7.42 198.38 6.6C197.27 5.73 195.62 5.55 194.37 6.38C193.57 6.91 192.94 7.7 192.24 8.37C191.92 7.99 191.56 7.48 191.12 7.05C191.12 7.05 191.13 7.07 191.13 7.07ZM23.99 34.27C22.94 34.38 21.91 34.49 20.89 34.6C20.81 34.58 20.72 34.57 20.64 34.55C19.33 34.55 18.02 34.53 16.72 34.52C15.42 34.52 14.11 34.52 12.58 34.52C13.07 33.25 13.49 32.17 13.91 31.09C15.54 26.93 17.18 22.77 18.81 18.61C18.46 18.74 18.12 18.88 17.57 19.09C17.65 18.25 17.71 17.57 17.78 16.89C16.98 18.87 16.18 20.85 15.39 22.83C12.75 29.45 10.18 36.11 7.46 42.69C6.4 45.26 4.89 47.56 1.85 48.24C1.63 48.29 1.47 48.63 1.28 48.83C1.54 49 1.79 49.3 2.05 49.31C6.26 49.33 10.48 49.31 14.69 49.29C14.96 49.29 15.23 49.12 15.51 49.02C15.5 48.89 15.48 48.75 15.47 48.62C14.86 48.56 14.26 48.51 13.65 48.45C12.66 48.35 11.66 48.31 10.69 48.12C8.96 47.77 8.3 46.73 8.63 44.99C8.75 44.37 8.93 43.75 9.16 43.17C10.04 40.92 10.98 38.69 11.84 36.43C12.11 35.71 12.5 35.52 13.24 35.52C16.3 35.52 19.37 35.53 22.42 35.35C23.87 35.26 24.83 35.53 25.18 37.04C25.17 36.52 25.24 35.98 25.12 35.49C24.87 34.47 24.55 33.47 24.19 32.48C24.02 32 24.21 31.16 23.25 31.26C23.49 32.24 23.74 33.22 24 34.27C24 34.27 23.99 34.27 23.99 34.27ZM217.28 46.95C214.7 46.78 212.31 45.88 210.48 43.92C209.13 42.47 209.18 40.57 210.55 39.24C211.8 38.03 215.07 37.48 216.63 38.22C217.93 38.84 218.1 40.35 216.94 41.2C216.5 41.52 215.94 41.68 215.48 41.98C215.29 42.1 215.13 42.38 215.12 42.6C215.12 42.73 215.42 42.95 215.61 42.99C216.9 43.25 219.13 41.86 219.52 40.58C219.92 39.28 219.22 37.71 217.56 37.24C215.92 36.78 214.13 36.62 212.43 36.7C210.12 36.81 208.34 38.04 207.63 40.33C206.91 42.66 208 44.48 209.78 45.83C213.84 48.88 218.46 48.89 223.19 48.04C222.86 47.53 222.54 47.02 222.21 46.52C220.56 46.68 218.89 47.06 217.26 46.95C217.26 46.95 217.28 46.95 217.28 46.95ZM91.41 22.18C90.56 22.53 89.8 23.35 89.24 24.12C87.97 25.87 88.37 28.27 89.93 29.18C91.43 30.05 94.77 29.6 95.97 28.32C96.17 28.11 96.16 27.71 96.25 27.39C95.95 27.33 95.64 27.2 95.34 27.21C94.4 27.26 93.44 27.56 92.54 27.41C90.94 27.14 90.4 25.41 91.54 24.25C92.1 23.68 92.86 23.21 93.62 22.95C94.73 22.57 95.92 22.43 97.08 22.18C96.98 21.65 95.97 21.39 96.6 20.63C94.86 21.13 93.07 21.49 91.41 22.17C91.41 22.17 91.41 22.18 91.41 22.18ZM64.1 47.42C65.24 46.59 65.71 45.37 65.37 43.94C65.1 42.79 64.23 42.21 63.18 42.01C61.75 41.73 60.36 41.89 59.42 43.18C59.17 43.52 59.19 44.06 59.09 44.51C60.13 44.09 60.79 43.4 61.58 43.19C62.33 42.99 63.35 43.05 64.01 43.42C64.87 43.9 64.93 44.9 64.59 45.87C64.09 47.3 62.69 48.38 61.19 48.08C59.99 47.84 58.88 47.18 57.73 46.71C57.51 47.68 58.38 48.85 57.2 49.65C59.73 49.6 62.07 48.92 64.11 47.43C64.11 47.43 64.1 47.42 64.1 47.42ZM23.95 8.56C21.56 8.35 20.94 8.73 20.11 10.97C20.03 11.19 19.98 11.42 19.91 11.64C20.35 11.1 21.6 11.09 20.85 9.74C21.74 9.82 22.43 9.94 23.12 9.93C23.82 9.93 24.52 9.8 25.22 9.72C25.21 8.89 24.69 8.61 23.95 8.55C23.95 8.55 23.95 8.56 23.95 8.56ZM141.72 28.95C141.72 33.85 141.72 38.76 141.72 43.66C141.81 43.29 141.97 42.92 141.97 42.55C141.99 37 141.99 31.46 141.97 25.91C141.97 25.54 141.81 25.17 141.73 24.8C141.73 26.18 141.72 27.57 141.72 28.95C141.72 28.95 141.72 28.95 141.72 28.95ZM188.26 28.03C188.23 33.39 188.21 38.76 188.18 44.12C188.3 43.73 188.53 43.35 188.53 42.96C188.55 37.83 188.55 32.7 188.53 27.57C188.53 27.21 188.35 26.84 188.25 26.48C188.25 27 188.25 27.51 188.25 28.03C188.25 28.03 188.26 28.03 188.26 28.03ZM150.08 29.1C150.01 29.36 149.88 29.61 149.87 29.87C149.86 34.41 149.86 38.96 149.87 43.5C149.87 43.79 150.03 44.08 150.11 44.37C150.1 39.28 150.09 34.19 150.08 29.1C150.08 29.1 150.08 29.1 150.08 29.1ZM57.06 39.84C56.95 39.99 56.75 40.13 56.75 40.29C56.68 41.93 56.62 43.58 56.62 45.22C56.62 45.42 57.02 45.61 57.23 45.81C57.18 43.82 57.12 41.84 57.07 39.85C57.07 39.85 57.06 39.84 57.06 39.84ZM80.37 14.05C80.37 14.05 80.29 14.11 80.29 14.13C80.3 17.92 80.32 21.71 80.33 25.5C80.34 21.68 80.35 17.86 80.36 14.04C80.36 14.04 80.37 14.05 80.37 14.05ZM17.98 16.42C19.42 15.87 19.93 14.87 19.45 13.39C19.4 13.24 19.41 13.08 19.4 12.92C18.93 14.09 18.46 15.25 17.99 16.42C17.99 16.42 17.98 16.42 17.98 16.42ZM195.69 20.74C195.62 21.04 195.49 21.34 195.49 21.64C195.47 24.38 195.47 27.12 195.49 29.86C195.49 30.16 195.62 30.46 195.69 30.76C195.69 27.42 195.69 24.08 195.69 20.75C195.69 20.75 195.69 20.74 195.69 20.74ZM57.2 13.57C57.12 13.86 56.97 14.15 56.97 14.44C56.95 17.04 56.95 19.63 56.97 22.23C56.97 22.52 57.11 22.82 57.18 23.11C57.18 19.93 57.2 16.74 57.21 13.56C57.21 13.56 57.2 13.57 57.2 13.57ZM226.04 47.22C225.48 46.95 224.93 46.69 224.37 46.42C224.3 46.53 224.23 46.64 224.17 46.75C224.24 47.08 224.32 47.41 224.39 47.75C224.94 47.57 225.49 47.39 226.04 47.22C226.04 47.22 226.04 47.22 226.04 47.22ZM48.59 35.06C48.59 32.99 48.61 30.93 48.61 28.86C48.61 30.93 48.59 32.99 48.59 35.06ZM53.11 49.51C53.03 47.92 51.95 48.68 51.18 48.69C51.82 48.96 52.47 49.24 53.11 49.51ZM57.1 36.73C56.47 37.44 56.53 38.16 57.07 38.88C57.08 38.16 57.09 37.44 57.1 36.73ZM73.18 44.85C73.19 43.5 73.2 42.15 73.21 40.79C73.2 42.14 73.19 43.49 73.18 44.85ZM54.84 49.74C54.38 49.23 53.92 48.81 53.33 49.58C53.83 49.63 54.34 49.69 54.84 49.74ZM56.72 49.71C56.57 49.53 56.41 49.36 56.26 49.18C56.08 49.38 55.91 49.59 55.73 49.79C56.06 49.76 56.39 49.73 56.72 49.71C56.72 49.71 56.72 49.71 56.72 49.71ZM125.47 38.9C125.47 38.1 125.47 37.3 125.47 36.49C125.47 37.29 125.47 38.09 125.47 38.9ZM48.59 37.7C48.59 36.98 48.59 36.27 48.59 35.55C48.59 36.27 48.59 36.98 48.59 37.7ZM125.48 28.86C125.48 29.58 125.48 30.3 125.48 31.02C125.48 30.3 125.48 29.58 125.48 28.86ZM123.59 47.96C124.3 47.96 125.01 47.96 125.73 47.95C125.02 47.95 124.31 47.95 123.59 47.96ZM222.35 46.5C222.75 46.47 223.43 47.12 223.42 46.07C223.06 46.21 222.71 46.36 222.35 46.5ZM122.12 47.61C122.13 47.72 122.15 47.84 122.16 47.95C122.16 47.95 123.11 47.95 123.11 47.95C123.11 47.77 123.1 47.6 123.09 47.42C122.77 47.48 122.44 47.54 122.12 47.6C122.12 47.6 122.12 47.61 122.12 47.61ZM19.41 12.86C19.58 12.45 19.75 12.04 19.92 11.63C19.75 12.04 19.58 12.45 19.41 12.86C19.41 12.86 19.41 12.86 19.41 12.86ZM48.62 43.42C48.62 42.95 48.61 42.47 48.6 42C48.6 42.47 48.61 42.95 48.62 43.42ZM73.22 39.6C73.22 39.21 73.22 38.82 73.22 38.42C73.22 38.81 73.22 39.2 73.22 39.6ZM224.14 45.68C223.91 45.81 223.67 45.94 223.44 46.07C223.67 45.94 223.91 45.81 224.14 45.68ZM125.48 36.03C125.48 35.71 125.48 35.39 125.48 35.06C125.48 35.38 125.48 35.7 125.48 36.03ZM125.44 43.69C125.44 43.36 125.44 43.02 125.44 42.69C125.44 43.02 125.44 43.36 125.44 43.69ZM57.19 24.8C57.19 25.04 57.19 25.28 57.18 25.51C57.18 25.27 57.18 25.03 57.19 24.8ZM48.53 24.58C48.56 24.81 48.59 25.04 48.62 25.27C48.59 25.04 48.56 24.81 48.53 24.58ZM224.4 47.76C224.15 47.83 223.9 47.9 223.65 47.97C223.9 47.9 224.15 47.83 224.4 47.76ZM57.21 45.8C57.29 45.97 57.37 46.13 57.45 46.3C57.37 46.13 57.29 45.97 57.21 45.8ZM57.45 46.28C57.55 46.43 57.65 46.59 57.74 46.74C57.64 46.59 57.54 46.43 57.45 46.28ZM80.39 11.43C80.39 11.58 80.39 11.74 80.39 11.89C80.39 11.74 80.39 11.58 80.39 11.43ZM73.43 12.38C73.43 12.22 73.43 12.06 73.43 11.9C73.43 12.06 73.43 12.22 73.43 12.38ZM73.43 15.01C73.43 14.85 73.43 14.69 73.43 14.53C73.43 14.69 73.43 14.85 73.43 15.01ZM48.6 38.65C48.6 38.49 48.6 38.33 48.6 38.17C48.6 38.33 48.6 38.49 48.6 38.65ZM17.99 16.4C17.92 16.57 17.84 16.74 17.77 16.91C17.84 16.74 17.92 16.57 17.99 16.4ZM226.28 47.11C226.36 47.07 226.44 47.04 226.52 47C226.44 47.04 226.36 47.07 226.28 47.11ZM97.36 20.72C97.27 20.66 97.18 20.6 97.08 20.53C97.17 20.59 97.26 20.65 97.36 20.72ZM195.68 31.73C195.68 31.73 195.61 31.78 195.61 31.79C195.62 31.84 195.65 31.9 195.68 31.95C195.72 31.88 195.72 31.8 195.68 31.73ZM195.66 19.79C195.66 19.79 195.59 19.85 195.6 19.86C195.62 19.91 195.66 19.96 195.69 20.01C195.73 19.93 195.72 19.86 195.66 19.79ZM80.38 12.14C80.38 12.14 80.29 12.19 80.3 12.21C80.32 12.27 80.35 12.32 80.38 12.38C80.38 12.3 80.38 12.22 80.38 12.14ZM57.21 12.61C57.21 12.61 57.12 12.67 57.13 12.68C57.15 12.74 57.18 12.79 57.21 12.85C57.21 12.77 57.21 12.69 57.21 12.61ZM73.43 11.18C73.43 11.18 73.51 11.11 73.51 11.11C73.49 11.05 73.45 11 73.41 10.95C73.41 11.03 73.42 11.1 73.43 11.18ZM103.52 42.2C103.55 40.55 103.55 38.9 103.52 37.25C103.5 36.44 103.39 35.64 103.32 34.83C103.31 37.69 103.3 40.56 103.28 43.42C103.36 43.01 103.51 42.61 103.51 42.2C103.51 42.2 103.52 42.2 103.52 42.2ZM103.32 34.34C103.32 34.11 103.32 33.87 103.32 33.64C103.32 33.87 103.32 34.11 103.32 34.34ZM20.64 34.55C20.72 34.57 20.81 34.58 20.89 34.6C20.81 34.58 20.72 34.57 20.64 34.55Z" id="Path" fill="url(#0x000001bd50e2e590)" stroke-width="1" stroke-linecap="butt" stroke-linejoin="miter" fill-rule="evenodd"/>
      </g>
     </g>
    </g>
   </g>
  </g>
 </g>
 <defs>
  <linearGradient id="0x000001bd50b3e760">
   <stop stop-color="#ffffff" offset="0"/>
   <stop stop-color="#a47a1c" offset="0.14285714285714285"/>
   <stop stop-color="#d4a94d" offset="0.2857142857142857"/>
   <stop stop-color="#ffec94" offset="0.42857142857142855"/>
   <stop stop-color="#e6be68" offset="0.5714285714285714"/>
   <stop stop-color="#ffd87c" offset="0.7142857142857143"/>
   <stop stop-color="#b58f3d" offset="0.8571428571428571"/>
   <stop stop-color="#956e14" offset="1"/>
  </linearGradient>
  <linearGradient id="0x000001bd50b40960">
   <stop stop-color="#a47a1c" offset="0"/>
   <stop stop-color="#d4a94d" offset="0.16666666666666666"/>
   <stop stop-color="#ffec94" offset="0.33333333333333331"/>
   <stop stop-color="#e6be68" offset="0.5"/>
   <stop stop-color="#ffd87c" offset="0.66666666666666663"/>
   <stop stop-color="#b58f3d" offset="0.83333333333333337"/>
   <stop stop-color="#956e14" offset="1"/>
  </linearGradient>
  <linearGradient y2="27.69" y1="27.69" gradientUnits="userSpaceOnUse" xlink:href="#0x000001bd50b40960" id="0x000001bd50e2e590">
   <animate keySplines="0 0 1 1;0 0 0.872011 0.999979;0 0 0.390211 1;0.28817 4.64019e-09 0.628223 0.25;0 0 1 1;0 0 1 1" dur="16.5s" keyTimes="0;0.0020202;0.454545;0.503626;0.555556;0.957576;1" repeatCount="indefinite" values="-121.83;-121.83;143.17;143.168;143.17;-121.83;-121.83" calcMode="spline" attributeName="x1"/>
   <animate keySplines="0 0 1 1;0 0 0.898797 0.998502;0 0 0.450524 1;0.321526 0 0.672003 0.25;0 0 1 1;0 0 1 1" dur="16.5s" keyTimes="0;0.0020202;0.454545;0.509014;0.555556;0.957576;1" repeatCount="indefinite" values="106.31;106.31;391.51;391.32;391.51;106.31;106.31" calcMode="spline" attributeName="x2"/>
  </linearGradient>
 </defs>
</svg>

